<?xml version="1.0" encoding="UTF-8" standalone="no"?>
<!DOCTYPE svg PUBLIC "-//W3C//DTD SVG 1.1//EN"
 "http://www.w3.org/Graphics/SVG/1.1/DTD/svg11.dtd">
<!-- Generated by graphviz version 9.0.0 (20230911.1827)
 -->
<!-- Title: treatment_flow Pages: 1 -->
<svg width="692pt" height="726pt"
 viewBox="0.00 0.00 692.32 725.98" xmlns="http://www.w3.org/2000/svg" xmlns:xlink="http://www.w3.org/1999/xlink">
<g id="graph0" class="graph" transform="scale(1 1) rotate(0) translate(4 721.98)">
<title>treatment_flow</title>
<polygon fill="white" stroke="none" points="-4,4 -4,-721.98 688.32,-721.98 688.32,4 -4,4"/>
<!-- fresh -->
<g id="node1" class="node">
<title>fresh</title>
<ellipse fill="none" stroke="black" cx="316.44" cy="-392.45" rx="51.86" ry="18"/>
<text text-anchor="middle" x="316.44" y="-387.4" font-family="Times,serif" font-size="14.00">Freshwater</text>
</g>
<!-- 0 -->
<g id="node3" class="node">
<title>0</title>
<path fill="none" stroke="black" d="M290.8,-201.43C290.8,-201.43 465.55,-201.43 465.55,-201.43 471.55,-201.43 477.55,-207.43 477.55,-213.43 477.55,-213.43 477.55,-287.43 477.55,-287.43 477.55,-293.43 471.55,-299.43 465.55,-299.43 465.55,-299.43 290.8,-299.43 290.8,-299.43 284.8,-299.43 278.8,-293.43 278.8,-287.43 278.8,-287.43 278.8,-213.43 278.8,-213.43 278.8,-207.43 284.8,-201.43 290.8,-201.43"/>
<text text-anchor="middle" x="311.92" y="-278.13" font-family="Times,serif" font-size="14.00">fresh</text>
<polyline fill="none" stroke="black" points="278.8,-266.93 345.05,-266.93"/>
<text text-anchor="middle" x="311.92" y="-245.63" font-family="Times,serif" font-size="14.00">untreated</text>
<polyline fill="none" stroke="black" points="278.8,-234.43 345.05,-234.43"/>
<text text-anchor="middle" x="311.92" y="-213.13" font-family="Times,serif" font-size="14.00">treated</text>
<polyline fill="none" stroke="black" points="345.05,-201.43 345.05,-299.43"/>
<text text-anchor="middle" x="372.17" y="-245.38" font-family="Times,serif" font-size="14.00">Plant 0</text>
<polyline fill="none" stroke="black" points="399.3,-201.43 399.3,-299.43"/>
<text text-anchor="middle" x="438.42" y="-282.13" font-family="Times,serif" font-size="14.00">waste</text>
<polyline fill="none" stroke="black" points="399.3,-274.93 477.55,-274.93"/>
<text text-anchor="middle" x="438.42" y="-257.63" font-family="Times,serif" font-size="14.00">untreated</text>
<polyline fill="none" stroke="black" points="399.3,-250.43 477.55,-250.43"/>
<text text-anchor="middle" x="438.42" y="-233.13" font-family="Times,serif" font-size="14.00">treatment 0</text>
<polyline fill="none" stroke="black" points="399.3,-225.93 477.55,-225.93"/>
<text text-anchor="middle" x="438.42" y="-208.63" font-family="Times,serif" font-size="14.00">treatment 1</text>
</g>
<!-- fresh&#45;&gt;0 -->
<g id="edge9" class="edge">
<title>fresh&#45;&gt;0:fresh_in</title>
<path fill="none" stroke="black" d="M316.78,-374.08C316.78,-373.67 316.77,-373.26 316.76,-372.85 316.21,-350.89 314.33,-325.3 313.15,-310.87"/>
<polygon fill="black" stroke="black" points="316.64,-310.6 312.3,-300.94 309.67,-311.2 316.64,-310.6"/>
<text text-anchor="middle" x="284.65" y="-339.69" font-family="Times,serif" font-size="14.00">88.6 (88.6)</text>
</g>
<!-- 1 -->
<g id="node4" class="node">
<title>1</title>
<path fill="none" stroke="black" d="M249.95,-18.37C249.95,-18.37 424.7,-18.37 424.7,-18.37 430.7,-18.37 436.7,-24.37 436.7,-30.37 436.7,-30.37 436.7,-104.37 436.7,-104.37 436.7,-110.37 430.7,-116.37 424.7,-116.37 424.7,-116.37 249.95,-116.37 249.95,-116.37 243.95,-116.37 237.95,-110.37 237.95,-104.37 237.95,-104.37 237.95,-30.37 237.95,-30.37 237.95,-24.37 243.95,-18.37 249.95,-18.37"/>
<text text-anchor="middle" x="271.07" y="-95.07" font-family="Times,serif" font-size="14.00">fresh</text>
<polyline fill="none" stroke="black" points="237.95,-83.87 304.2,-83.87"/>
<text text-anchor="middle" x="271.07" y="-62.57" font-family="Times,serif" font-size="14.00">untreated</text>
<polyline fill="none" stroke="black" points="237.95,-51.37 304.2,-51.37"/>
<text text-anchor="middle" x="271.07" y="-30.07" font-family="Times,serif" font-size="14.00">treated</text>
<polyline fill="none" stroke="black" points="304.2,-18.37 304.2,-116.37"/>
<text text-anchor="middle" x="331.32" y="-62.32" font-family="Times,serif" font-size="14.00">Plant 1</text>
<polyline fill="none" stroke="black" points="358.45,-18.37 358.45,-116.37"/>
<text text-anchor="middle" x="397.57" y="-99.07" font-family="Times,serif" font-size="14.00">waste</text>
<polyline fill="none" stroke="black" points="358.45,-91.87 436.7,-91.87"/>
<text text-anchor="middle" x="397.57" y="-74.57" font-family="Times,serif" font-size="14.00">untreated</text>
<polyline fill="none" stroke="black" points="358.45,-67.37 436.7,-67.37"/>
<text text-anchor="middle" x="397.57" y="-50.07" font-family="Times,serif" font-size="14.00">treatment 0</text>
<polyline fill="none" stroke="black" points="358.45,-42.87 436.7,-42.87"/>
<text text-anchor="middle" x="397.57" y="-25.57" font-family="Times,serif" font-size="14.00">treatment 1</text>
</g>
<!-- fresh&#45;&gt;1 -->
<g id="edge10" class="edge">
<title>fresh&#45;&gt;1:fresh_in</title>
<path fill="none" stroke="black" d="M305.72,-374.64C295.78,-357.05 281.64,-329.02 275.6,-302.63 260.74,-237.68 267.03,-156.65 270.05,-127.48"/>
<polygon fill="black" stroke="black" points="273.49,-128.21 271.15,-117.88 266.53,-127.41 273.49,-128.21"/>
<text text-anchor="middle" x="252.47" y="-233.83" font-family="Times,serif" font-size="14.00">12.1 (12.1)</text>
</g>
<!-- 2 -->
<g id="node5" class="node">
<title>2</title>
<path fill="none" stroke="black" d="M25.63,-437.68C25.63,-437.68 200.38,-437.68 200.38,-437.68 206.38,-437.68 212.38,-443.68 212.38,-449.68 212.38,-449.68 212.38,-523.68 212.38,-523.68 212.38,-529.68 206.38,-535.68 200.38,-535.68 200.38,-535.68 25.63,-535.68 25.63,-535.68 19.63,-535.68 13.63,-529.68 13.63,-523.68 13.63,-523.68 13.63,-449.68 13.63,-449.68 13.63,-443.68 19.63,-437.68 25.63,-437.68"/>
<text text-anchor="middle" x="46.75" y="-514.38" font-family="Times,serif" font-size="14.00">fresh</text>
<polyline fill="none" stroke="black" points="13.63,-503.18 79.88,-503.18"/>
<text text-anchor="middle" x="46.75" y="-481.88" font-family="Times,serif" font-size="14.00">untreated</text>
<polyline fill="none" stroke="black" points="13.63,-470.68 79.88,-470.68"/>
<text text-anchor="middle" x="46.75" y="-449.38" font-family="Times,serif" font-size="14.00">treated</text>
<polyline fill="none" stroke="black" points="79.88,-437.68 79.88,-535.68"/>
<text text-anchor="middle" x="107" y="-481.63" font-family="Times,serif" font-size="14.00">Plant 2</text>
<polyline fill="none" stroke="black" points="134.13,-437.68 134.13,-535.68"/>
<text text-anchor="middle" x="173.25" y="-518.38" font-family="Times,serif" font-size="14.00">waste</text>
<polyline fill="none" stroke="black" points="134.13,-511.18 212.38,-511.18"/>
<text text-anchor="middle" x="173.25" y="-493.88" font-family="Times,serif" font-size="14.00">untreated</text>
<polyline fill="none" stroke="black" points="134.13,-486.68 212.38,-486.68"/>
<text text-anchor="middle" x="173.25" y="-469.38" font-family="Times,serif" font-size="14.00">treatment 0</text>
<polyline fill="none" stroke="black" points="134.13,-462.18 212.38,-462.18"/>
<text text-anchor="middle" x="173.25" y="-444.88" font-family="Times,serif" font-size="14.00">treatment 1</text>
</g>
<!-- fresh&#45;&gt;2 -->
<g id="edge11" class="edge">
<title>fresh&#45;&gt;2:fresh_in</title>
<path fill="none" stroke="black" d="M310.38,-410.77C298.36,-443.7 268.03,-511.95 215.58,-538.88 161.96,-566.41 85.54,-547.57 57.73,-539.16"/>
<polygon fill="black" stroke="black" points="59.13,-535.93 48.54,-536.16 56.96,-542.59 59.13,-535.93"/>
<text text-anchor="middle" x="176.87" y="-545.93" font-family="Times,serif" font-size="14.00">64.6 (64.6)</text>
</g>
<!-- 3 -->
<g id="node6" class="node">
<title>3</title>
<path fill="none" stroke="black" d="M228.03,-619.48C228.03,-619.48 402.78,-619.48 402.78,-619.48 408.78,-619.48 414.78,-625.48 414.78,-631.48 414.78,-631.48 414.78,-705.48 414.78,-705.48 414.78,-711.48 408.78,-717.48 402.78,-717.48 402.78,-717.48 228.03,-717.48 228.03,-717.48 222.03,-717.48 216.03,-711.48 216.03,-705.48 216.03,-705.48 216.03,-631.48 216.03,-631.48 216.03,-625.48 222.03,-619.48 228.03,-619.48"/>
<text text-anchor="middle" x="249.15" y="-696.18" font-family="Times,serif" font-size="14.00">fresh</text>
<polyline fill="none" stroke="black" points="216.03,-684.98 282.28,-684.98"/>
<text text-anchor="middle" x="249.15" y="-663.68" font-family="Times,serif" font-size="14.00">untreated</text>
<polyline fill="none" stroke="black" points="216.03,-652.48 282.28,-652.48"/>
<text text-anchor="middle" x="249.15" y="-631.18" font-family="Times,serif" font-size="14.00">treated</text>
<polyline fill="none" stroke="black" points="282.28,-619.48 282.28,-717.48"/>
<text text-anchor="middle" x="309.4" y="-663.43" font-family="Times,serif" font-size="14.00">Plant 3</text>
<polyline fill="none" stroke="black" points="336.53,-619.48 336.53,-717.48"/>
<text text-anchor="middle" x="375.65" y="-700.18" font-family="Times,serif" font-size="14.00">waste</text>
<polyline fill="none" stroke="black" points="336.53,-692.98 414.78,-692.98"/>
<text text-anchor="middle" x="375.65" y="-675.68" font-family="Times,serif" font-size="14.00">untreated</text>
<polyline fill="none" stroke="black" points="336.53,-668.48 414.78,-668.48"/>
<text text-anchor="middle" x="375.65" y="-651.18" font-family="Times,serif" font-size="14.00">treatment 0</text>
<polyline fill="none" stroke="black" points="336.53,-643.98 414.78,-643.98"/>
<text text-anchor="middle" x="375.65" y="-626.68" font-family="Times,serif" font-size="14.00">treatment 1</text>
</g>
<!-- fresh&#45;&gt;3 -->
<g id="edge12" class="edge">
<title>fresh&#45;&gt;3:fresh_in</title>
<path fill="none" stroke="black" d="M304.55,-410.29C280.96,-446.93 229.12,-534.16 212.83,-616.28 207.65,-642.38 211.51,-673.85 214.27,-690.23"/>
<polygon fill="black" stroke="black" points="210.8,-690.72 216.11,-699.89 217.67,-689.41 210.8,-690.72"/>
<text text-anchor="middle" x="264.51" y="-548.8" font-family="Times,serif" font-size="14.00">38.0 (38.0)</text>
</g>
<!-- 4 -->
<g id="node7" class="node">
<title>4</title>
<path fill="none" stroke="black" d="M57.13,-206.87C57.13,-206.87 231.88,-206.87 231.88,-206.87 237.88,-206.87 243.88,-212.87 243.88,-218.87 243.88,-218.87 243.88,-292.87 243.88,-292.87 243.88,-298.87 237.88,-304.87 231.88,-304.87 231.88,-304.87 57.13,-304.87 57.13,-304.87 51.13,-304.87 45.13,-298.87 45.13,-292.87 45.13,-292.87 45.13,-218.87 45.13,-218.87 45.13,-212.87 51.13,-206.87 57.13,-206.87"/>
<text text-anchor="middle" x="78.25" y="-283.57" font-family="Times,serif" font-size="14.00">fresh</text>
<polyline fill="none" stroke="black" points="45.13,-272.37 111.38,-272.37"/>
<text text-anchor="middle" x="78.25" y="-251.07" font-family="Times,serif" font-size="14.00">untreated</text>
<polyline fill="none" stroke="black" points="45.13,-239.87 111.38,-239.87"/>
<text text-anchor="middle" x="78.25" y="-218.57" font-family="Times,serif" font-size="14.00">treated</text>
<polyline fill="none" stroke="black" points="111.38,-206.87 111.38,-304.87"/>
<text text-anchor="middle" x="138.5" y="-250.82" font-family="Times,serif" font-size="14.00">Plant 4</text>
<polyline fill="none" stroke="black" points="165.63,-206.87 165.63,-304.87"/>
<text text-anchor="middle" x="204.75" y="-287.57" font-family="Times,serif" font-size="14.00">waste</text>
<polyline fill="none" stroke="black" points="165.63,-280.37 243.88,-280.37"/>
<text text-anchor="middle" x="204.75" y="-263.07" font-family="Times,serif" font-size="14.00">untreated</text>
<polyline fill="none" stroke="black" points="165.63,-255.87 243.88,-255.87"/>
<text text-anchor="middle" x="204.75" y="-238.57" font-family="Times,serif" font-size="14.00">treatment 0</text>
<polyline fill="none" stroke="black" points="165.63,-231.37 243.88,-231.37"/>
<text text-anchor="middle" x="204.75" y="-214.07" font-family="Times,serif" font-size="14.00">treatment 1</text>
</g>
<!-- fresh&#45;&gt;4 -->
<g id="edge13" class="edge">
<title>fresh&#45;&gt;4:fresh_in</title>
<path fill="none" stroke="black" d="M280.31,-379.15C224.92,-358.76 122,-320.88 88.99,-308.73"/>
<polygon fill="black" stroke="black" points="90.52,-305.56 79.93,-305.39 88.1,-312.13 90.52,-305.56"/>
<text text-anchor="middle" x="145.83" y="-344.03" font-family="Times,serif" font-size="14.00">85.0 (85.0)</text>
</g>
<!-- 5 -->
<g id="node8" class="node">
<title>5</title>
<path fill="none" stroke="black" d="M497.57,-177.74C497.57,-177.74 672.32,-177.74 672.32,-177.74 678.32,-177.74 684.32,-183.74 684.32,-189.74 684.32,-189.74 684.32,-263.74 684.32,-263.74 684.32,-269.74 678.32,-275.74 672.32,-275.74 672.32,-275.74 497.57,-275.74 497.57,-275.74 491.57,-275.74 485.57,-269.74 485.57,-263.74 485.57,-263.74 485.57,-189.74 485.57,-189.74 485.57,-183.74 491.57,-177.74 497.57,-177.74"/>
<text text-anchor="middle" x="518.7" y="-254.44" font-family="Times,serif" font-size="14.00">fresh</text>
<polyline fill="none" stroke="black" points="485.57,-243.24 551.82,-243.24"/>
<text text-anchor="middle" x="518.7" y="-221.94" font-family="Times,serif" font-size="14.00">untreated</text>
<polyline fill="none" stroke="black" points="485.57,-210.74 551.82,-210.74"/>
<text text-anchor="middle" x="518.7" y="-189.44" font-family="Times,serif" font-size="14.00">treated</text>
<polyline fill="none" stroke="black" points="551.82,-177.74 551.82,-275.74"/>
<text text-anchor="middle" x="578.95" y="-221.69" font-family="Times,serif" font-size="14.00">Plant 5</text>
<polyline fill="none" stroke="black" points="606.07,-177.74 606.07,-275.74"/>
<text text-anchor="middle" x="645.2" y="-258.44" font-family="Times,serif" font-size="14.00">waste</text>
<polyline fill="none" stroke="black" points="606.07,-251.24 684.32,-251.24"/>
<text text-anchor="middle" x="645.2" y="-233.94" font-family="Times,serif" font-size="14.00">untreated</text>
<polyline fill="none" stroke="black" points="606.07,-226.74 684.32,-226.74"/>
<text text-anchor="middle" x="645.2" y="-209.44" font-family="Times,serif" font-size="14.00">treatment 0</text>
<polyline fill="none" stroke="black" points="606.07,-202.24 684.32,-202.24"/>
<text text-anchor="middle" x="645.2" y="-184.94" font-family="Times,serif" font-size="14.00">treatment 1</text>
</g>
<!-- fresh&#45;&gt;5 -->
<g id="edge14" class="edge">
<title>fresh&#45;&gt;5:fresh_in</title>
<path fill="none" stroke="black" d="M359.29,-382.06C398.42,-370.07 454.15,-346.16 480.75,-302.63 486.25,-293.63 481.05,-289.41 482.37,-278.94 482.71,-276.24 483.19,-273.34 483.68,-270.63"/>
<polygon fill="black" stroke="black" points="487.05,-271.63 485.63,-261.13 480.19,-270.22 487.05,-271.63"/>
<text text-anchor="middle" x="409.09" y="-347.98" font-family="Times,serif" font-size="14.00">67.2 (67.2)</text>
</g>
<!-- waste -->
<g id="node2" class="node">
<title>waste</title>
<ellipse fill="none" stroke="black" cx="492.37" cy="-467.35" rx="53.91" ry="18"/>
<text text-anchor="middle" x="492.37" y="-462.3" font-family="Times,serif" font-size="14.00">Wastewater</text>
</g>
<!-- 0&#45;&gt;waste -->
<g id="edge15" class="edge">
<title>0:waste_out&#45;&gt;waste</title>
<path fill="none" stroke="black" d="M438.17,-299.43C438.17,-299.43 467.53,-390.37 483.03,-438.41"/>
<polygon fill="black" stroke="black" points="479.6,-439.18 486,-447.62 486.26,-437.03 479.6,-439.18"/>
<text text-anchor="middle" x="425.13" y="-377.25" font-family="Times,serif" font-size="14.00">45.6 (4555.6)</text>
</g>
<!-- 0&#45;&gt;1 -->
<g id="edge3" class="edge">
<title>0:untreat_out&#45;&gt;1:untreat_in</title>
<path fill="none" stroke="black" d="M477.2,-262.34C477.2,-262.34 484.8,-204.11 480.75,-198.23 415.65,-103.69 299.32,-214.48 234.75,-119.57 226.37,-107.26 230.15,-89.3 233.95,-77.98"/>
<polygon fill="black" stroke="black" points="237.17,-79.36 237.66,-68.78 230.68,-76.75 237.17,-79.36"/>
<text text-anchor="middle" x="327.44" y="-162.22" font-family="Times,serif" font-size="14.00">7.9 (787.9)</text>
</g>
<!-- 0&#45;&gt;2 -->
<g id="edge4" class="edge">
<title>0:untreat_out&#45;&gt;2:untreat_in</title>
<path fill="none" stroke="black" d="M477.2,-262.34C477.2,-262.34 487.38,-285.92 480.75,-302.63 422.55,-449.36 363.08,-482.7 215.58,-538.88 130.37,-571.34 72.72,-605.46 10.43,-538.88 0,-527.74 4.75,-508.74 9.25,-497"/>
<polygon fill="black" stroke="black" points="12.36,-498.62 13.28,-488.06 5.98,-495.74 12.36,-498.62"/>
<text text-anchor="middle" x="273.97" y="-502.08" font-family="Times,serif" font-size="14.00">15.4 (1535.4)</text>
</g>
<!-- 0&#45;&gt;5 -->
<g id="edge5" class="edge">
<title>0:untreat_out&#45;&gt;5:untreat_in</title>
<path fill="none" stroke="black" d="M477.17,-262.43C477.17,-262.43 480.69,-248.14 483.27,-237.65"/>
<polygon fill="black" stroke="black" points="486.6,-238.76 485.58,-228.21 479.8,-237.09 486.6,-238.76"/>
<text text-anchor="middle" x="444.49" y="-247.56" font-family="Times,serif" font-size="14.00">31.2 (3121.2)</text>
</g>
<!-- 1&#45;&gt;4 -->
<g id="edge1" class="edge">
<title>1:treat_1_out&#45;&gt;4:treat_in</title>
<path fill="none" stroke="black" d="M397.22,-18.37C397.22,-18.37 267.52,0 234.75,-15.17 150.98,-53.96 97.71,-162.81 82.8,-196.68"/>
<polygon fill="black" stroke="black" points="79.75,-194.9 79.09,-205.48 86.2,-197.62 79.75,-194.9"/>
<text text-anchor="middle" x="144.66" y="-54.58" font-family="Times,serif" font-size="14.00">18.4 (3688.4)</text>
</g>
<!-- 1&#45;&gt;5 -->
<g id="edge2" class="edge">
<title>1:treat_1_out&#45;&gt;5:treat_in</title>
<path fill="none" stroke="black" d="M436.32,-30.37C436.32,-30.37 471.65,-147.39 482.69,-183.96"/>
<polygon fill="black" stroke="black" points="479.27,-184.73 485.51,-193.3 485.97,-182.71 479.27,-184.73"/>
<text text-anchor="middle" x="491.46" y="-115.59" font-family="Times,serif" font-size="14.00">1.6 (311.6)</text>
</g>
<!-- 2&#45;&gt;0 -->
<g id="edge6" class="edge">
<title>2:untreat_out&#45;&gt;0:untreat_in</title>
<path fill="none" stroke="black" d="M212,-498.68C212,-498.68 263.2,-309.46 276.2,-261.42"/>
<polygon fill="black" stroke="black" points="279.55,-262.46 278.78,-251.89 272.79,-260.63 279.55,-262.46"/>
<text text-anchor="middle" x="211.8" y="-377.9" font-family="Times,serif" font-size="14.00">11.4 (911.4)</text>
</g>
<!-- 2&#45;&gt;3 -->
<g id="edge7" class="edge">
<title>2:untreat_out&#45;&gt;3:untreat_in</title>
<path fill="none" stroke="black" d="M212.03,-498.59C212.03,-498.59 215.1,-520.91 215.58,-538.88 216.47,-573.29 212.29,-581.86 212.83,-616.28 213.05,-630.44 214.29,-646.73 215.23,-657.29"/>
<polygon fill="black" stroke="black" points="211.72,-657.35 216.16,-666.97 218.68,-656.68 211.72,-657.35"/>
<text text-anchor="middle" x="176.77" y="-586.35" font-family="Times,serif" font-size="14.00">22.0 (1762.0)</text>
</g>
<!-- 2&#45;&gt;4 -->
<g id="edge8" class="edge">
<title>2:untreat_out&#45;&gt;4:untreat_in</title>
<path fill="none" stroke="black" d="M212.03,-498.59C212.03,-498.59 227.81,-460.26 215.58,-434.48 174.64,-348.24 82.38,-394.54 41.93,-308.07 35.7,-294.74 38.74,-277.38 41.82,-266.43"/>
<polygon fill="black" stroke="black" points="45.02,-267.9 44.92,-257.3 38.39,-265.65 45.02,-267.9"/>
<text text-anchor="middle" x="93.39" y="-375.15" font-family="Times,serif" font-size="14.00">46.6 (3726.6)</text>
</g>
<!-- 3&#45;&gt;waste -->
<g id="edge16" class="edge">
<title>3:waste_out&#45;&gt;waste</title>
<path fill="none" stroke="black" d="M414.4,-705.48C414.4,-705.48 469.94,-596.76 490.31,-496.92"/>
<polygon fill="black" stroke="black" points="493.72,-497.7 492.16,-487.22 486.85,-496.39 493.72,-497.7"/>
<text text-anchor="middle" x="419.92" y="-601.72" font-family="Times,serif" font-size="14.00">60.0 (12000.0)</text>
</g>
<!-- 4&#45;&gt;waste -->
<g id="edge17" class="edge">
<title>4:waste_out&#45;&gt;waste</title>
<path fill="none" stroke="black" d="M243.5,-292.87C243.5,-292.87 392.04,-397.01 459.61,-444.38"/>
<polygon fill="black" stroke="black" points="457.52,-447.19 467.72,-450.07 461.54,-441.46 457.52,-447.19"/>
<text text-anchor="middle" x="312.61" y="-358.78" font-family="Times,serif" font-size="14.00">150.0 (22500.0)</text>
</g>
<!-- 5&#45;&gt;waste -->
<g id="edge18" class="edge">
<title>5:waste_out&#45;&gt;waste</title>
<path fill="none" stroke="black" d="M644.95,-275.74C644.95,-275.74 555.31,-388.31 513.45,-440.89"/>
<polygon fill="black" stroke="black" points="510.89,-438.48 507.4,-448.49 516.36,-442.84 510.89,-438.48"/>
<text text-anchor="middle" x="531.97" y="-365.73" font-family="Times,serif" font-size="14.00">100.0 (13000.0)</text>
</g>
</g>
</svg>
